<svg xmlns="http://www.w3.org/2000/svg" xmlns:xlink="http://www.w3.org/1999/xlink" width="500" zoomAndPan="magnify" viewBox="0 0 375 374.999991" height="500" preserveAspectRatio="xMidYMid meet" version="1.0"><defs><clipPath id="e5bb69c423"><path d="M 7.828125 43.179688 L 367.078125 43.179688 L 367.078125 323.640625 L 7.828125 323.640625 Z M 7.828125 43.179688 " clip-rule="nonzero"/></clipPath></defs><rect x="-37.5" width="450" fill="#ffffff" y="-37.499999" height="449.999989" fill-opacity="1"/><rect x="-37.5" width="450" fill="#ffffff" y="-37.499999" height="449.999989" fill-opacity="1"/><rect x="-37.5" width="450" fill="#cb6ce6" y="-37.499999" height="449.999989" fill-opacity="1"/><g clip-path="url(#e5bb69c423)"><path fill="#000000" d="M 191.398438 109.496094 C 190.609375 109.496094 189.625 109.496094 188.835938 109.496094 C 169.117188 109.496094 150.582031 117.191406 136.78125 131.003906 C 122.78125 145.011719 115.289062 163.363281 115.289062 183.09375 C 115.289062 202.828125 122.976562 221.375 136.78125 235.1875 C 141.710938 240.121094 147.230469 244.265625 153.144531 247.421875 C 85.121094 226.703125 64.613281 179.9375 64.613281 179.9375 C 64.613281 179.9375 121.796875 91.933594 250.15625 105.15625 L 257.253906 85.421875 C 257.253906 85.421875 257.054688 85.421875 257.054688 85.421875 L 272.4375 43.59375 L 250.550781 84.4375 C 115.484375 66.480469 7.828125 180.726562 7.828125 180.726562 C 7.828125 180.726562 83.148438 260.839844 184.890625 256.890625 C 186.269531 256.890625 187.453125 257.089844 188.835938 257.089844 C 208.550781 257.089844 227.085938 249.394531 240.886719 235.582031 C 254.886719 221.574219 262.378906 203.222656 262.378906 183.492188 C 262.378906 163.757812 254.691406 145.210938 240.886719 131.398438 C 236.945312 127.453125 232.804688 124.097656 228.269531 121.335938 C 290.96875 143.238281 310.097656 186.84375 310.097656 186.84375 C 310.097656 186.84375 252.914062 274.847656 124.554688 261.628906 L 117.457031 281.359375 C 117.457031 281.359375 117.65625 281.359375 117.65625 281.359375 L 102.273438 323.191406 L 124.160156 281.953125 C 259.421875 299.90625 367.078125 185.660156 367.078125 185.660156 C 367.078125 185.660156 292.351562 106.339844 191.398438 109.496094 Z M 189.03125 233.609375 C 161.230469 233.609375 138.554688 210.917969 138.554688 183.09375 C 138.554688 155.273438 161.230469 132.582031 189.03125 132.582031 C 216.832031 132.582031 239.507812 155.273438 239.507812 183.09375 C 239.507812 210.917969 216.832031 233.609375 189.03125 233.609375 Z M 189.03125 233.609375 " fill-opacity="1" fill-rule="nonzero"/></g><path fill="#000000" d="M 206.382812 183.09375 C 206.382812 183.714844 206.351562 184.335938 206.292969 184.953125 C 206.230469 185.570312 206.140625 186.183594 206.019531 186.792969 C 205.898438 187.398438 205.746094 188 205.566406 188.59375 C 205.386719 189.1875 205.179688 189.769531 204.941406 190.34375 C 204.703125 190.917969 204.441406 191.476562 204.148438 192.023438 C 203.855469 192.570312 203.539062 193.105469 203.191406 193.621094 C 202.847656 194.136719 202.480469 194.632812 202.085938 195.113281 C 201.691406 195.59375 201.277344 196.050781 200.839844 196.488281 C 200.402344 196.929688 199.941406 197.34375 199.460938 197.738281 C 198.984375 198.132812 198.484375 198.5 197.96875 198.84375 C 197.453125 199.191406 196.925781 199.507812 196.378906 199.800781 C 195.832031 200.09375 195.269531 200.359375 194.699219 200.597656 C 194.125 200.832031 193.542969 201.042969 192.949219 201.222656 C 192.355469 201.402344 191.753906 201.554688 191.148438 201.675781 C 190.539062 201.796875 189.925781 201.886719 189.308594 201.945312 C 188.691406 202.007812 188.074219 202.039062 187.453125 202.039062 C 186.835938 202.039062 186.214844 202.007812 185.597656 201.945312 C 184.980469 201.886719 184.371094 201.796875 183.761719 201.675781 C 183.152344 201.554688 182.554688 201.402344 181.960938 201.222656 C 181.367188 201.042969 180.785156 200.832031 180.210938 200.597656 C 179.636719 200.359375 179.078125 200.09375 178.53125 199.800781 C 177.984375 199.507812 177.453125 199.191406 176.9375 198.84375 C 176.421875 198.5 175.925781 198.132812 175.445312 197.738281 C 174.964844 197.34375 174.507812 196.929688 174.070312 196.488281 C 173.632812 196.050781 173.214844 195.59375 172.820312 195.113281 C 172.429688 194.632812 172.058594 194.136719 171.714844 193.621094 C 171.371094 193.105469 171.054688 192.570312 170.761719 192.023438 C 170.46875 191.476562 170.203125 190.917969 169.964844 190.34375 C 169.730469 189.769531 169.519531 189.1875 169.339844 188.59375 C 169.160156 188 169.011719 187.398438 168.890625 186.792969 C 168.769531 186.183594 168.675781 185.570312 168.617188 184.953125 C 168.554688 184.335938 168.527344 183.714844 168.527344 183.09375 C 168.527344 182.476562 168.554688 181.855469 168.617188 181.238281 C 168.675781 180.621094 168.769531 180.007812 168.890625 179.398438 C 169.011719 178.792969 169.160156 178.191406 169.339844 177.597656 C 169.519531 177.003906 169.730469 176.417969 169.964844 175.847656 C 170.203125 175.273438 170.46875 174.714844 170.761719 174.167969 C 171.054688 173.617188 171.371094 173.085938 171.714844 172.570312 C 172.058594 172.054688 172.429688 171.558594 172.820312 171.078125 C 173.214844 170.597656 173.632812 170.140625 174.070312 169.703125 C 174.507812 169.261719 174.964844 168.847656 175.445312 168.453125 C 175.925781 168.058594 176.421875 167.691406 176.9375 167.34375 C 177.453125 167 177.984375 166.683594 178.53125 166.390625 C 179.078125 166.097656 179.636719 165.832031 180.210938 165.59375 C 180.785156 165.359375 181.367188 165.148438 181.960938 164.96875 C 182.554688 164.789062 183.152344 164.636719 183.761719 164.515625 C 184.371094 164.394531 184.980469 164.304688 185.597656 164.246094 C 186.214844 164.183594 186.835938 164.152344 187.453125 164.152344 C 188.074219 164.152344 188.691406 164.183594 189.308594 164.246094 C 189.925781 164.304688 190.539062 164.394531 191.148438 164.515625 C 191.753906 164.636719 192.355469 164.789062 192.949219 164.96875 C 193.542969 165.148438 194.125 165.359375 194.699219 165.59375 C 195.269531 165.832031 195.832031 166.097656 196.378906 166.390625 C 196.925781 166.683594 197.453125 167 197.96875 167.34375 C 198.484375 167.691406 198.984375 168.058594 199.460938 168.453125 C 199.941406 168.847656 200.402344 169.261719 200.839844 169.703125 C 201.277344 170.140625 201.691406 170.597656 202.085938 171.078125 C 202.480469 171.558594 202.847656 172.054688 203.191406 172.570312 C 203.539062 173.085938 203.855469 173.617188 204.148438 174.167969 C 204.441406 174.714844 204.703125 175.273438 204.941406 175.847656 C 205.179688 176.417969 205.386719 177.003906 205.566406 177.597656 C 205.746094 178.191406 205.898438 178.792969 206.019531 179.398438 C 206.140625 180.007812 206.230469 180.621094 206.292969 181.238281 C 206.351562 181.855469 206.382812 182.476562 206.382812 183.09375 Z M 206.382812 183.09375 " fill-opacity="1" fill-rule="nonzero"/></svg>